<svg xmlns="http://www.w3.org/2000/svg" width="25" height="23" viewBox="0 0 25 23" fill="none">
  <path d="M0 1.25C0 0.918475 0.1317 0.600538 0.366113 0.366113C0.600538 0.1317 0.918475 0 1.25 0H23.75C24.0815 0 24.3995 0.1317 24.6339 0.366113C24.8682 0.600538 25 0.918475 25 1.25C25 1.58152 24.8682 1.89946 24.6339 2.13389C24.3995 2.3683 24.0815 2.5 23.75 2.5H1.25C0.918475 2.5 0.600538 2.3683 0.366113 2.13389C0.1317 1.89946 0 1.58152 0 1.25ZM1.25 12.5H23.75C24.0815 12.5 24.3995 12.3682 24.6339 12.1339C24.8682 11.8995 25 11.5815 25 11.25C25 10.9185 24.8682 10.6005 24.6339 10.3661C24.3995 10.1318 24.0815 10 23.75 10H1.25C0.918475 10 0.600538 10.1318 0.366113 10.3661C0.1317 10.6005 0 10.9185 0 11.25C0 11.5815 0.1317 11.8995 0.366113 12.1339C0.600538 12.3682 0.918475 12.5 1.25 12.5ZM1.25 22.5H23.75C24.0815 22.5 24.3995 22.3682 24.6339 22.1339C24.8682 21.8995 25 21.5815 25 21.25C25 20.9185 24.8682 20.6005 24.6339 20.3661C24.3995 20.1318 24.0815 20 23.75 20H1.25C0.918475 20 0.600538 20.1318 0.366113 20.3661C0.1317 20.6005 0 20.9185 0 21.25C0 21.5815 0.1317 21.8995 0.366113 22.1339C0.600538 22.3682 0.918475 22.5 1.25 22.5Z" fill="#fff"/>
</svg>