<svg xmlns="http://www.w3.org/2000/svg" width="26" height="22" viewBox="0 0 26 22" fill="none">
  <path d="M13.6929 20.7311L23.0726 11.4291C25.3772 9.14346 25.7173 5.38331 23.5363 2.98133C22.99 2.37793 22.3255 1.89124 21.5832 1.55098C20.841 1.2107 20.0366 1.02395 19.2192 1.00216C18.4018 0.980361 17.5885 1.12395 16.8289 1.42418C16.0693 1.72441 15.3794 2.17497 14.8012 2.74837L13.0382 4.49673L11.5161 2.98719C9.21139 0.701598 5.41987 0.364392 2.99786 2.52734C2.38943 3.06912 1.89868 3.72817 1.55557 4.46426C1.21245 5.20035 1.02415 5.99806 1.00217 6.80869C0.980197 7.61934 1.12499 8.42592 1.42772 9.17922C1.73045 9.93251 2.18477 10.6167 2.76296 11.1902L12.3834 20.7311C12.557 20.9033 12.7926 21 13.0382 21C13.2837 21 13.5193 20.9033 13.6929 20.7311Z" stroke="white" stroke-width="2" stroke-linecap="round" stroke-linejoin="round"/>
</svg>